<svg width="400" height="400" viewBox="0 0 400 400" fill="none" xmlns="http://www.w3.org/2000/svg">
<g clip-path="url(#clip0_4654_1751)">
<path d="M400 0H0V400H400V0Z" fill="#0258FF" style="fill:#0258FF;fill:color(display-p3 0.0078 0.3451 1.0000);fill-opacity:1;"/>
<g clip-path="url(#clip1_4654_1751)">
<path d="M235.151 94.8449C251.996 100.494 267.336 110.359 279.586 123.217C290.102 134.255 298.31 147.46 303.465 161.817C309.299 177.885 311.141 195.241 309.164 212.205C307.322 227.687 302.124 242.75 294.008 256.064C290.705 261.871 286.599 267.086 282.161 272.062C272.29 272.062 262.42 272.067 252.556 272.056C252.561 265 252.545 257.938 252.561 250.876C252.29 238.024 252.469 225.161 252.425 212.309C252.061 196.539 252.507 180.753 252.132 164.984C235.477 155.065 218.811 145.168 202.162 135.233C186.121 144.847 170.134 154.549 154.104 164.18C154.093 168.27 154.11 172.366 154.093 176.457C154.381 189.852 154.164 203.259 154.24 216.654C154.495 224.433 154.321 232.228 154.37 240.012C146.309 240.023 138.253 239.99 130.192 240.023C124.668 240.246 119.143 240.115 113.608 240.148C123.353 260.366 140.155 276.956 160.633 286.185C176.023 293.204 193.248 295.919 210.06 294.143C223.087 292.753 235.906 288.678 247.248 282.095C248.215 281.503 249.117 281.394 250.236 281.41C257.732 281.464 265.229 281.394 272.725 281.454C266.684 286.826 260.025 291.509 252.947 295.409C237.878 303.774 220.913 308.326 203.705 309H196.176C177.674 308.283 159.455 303.024 143.582 293.448C126.884 283.469 112.945 269.014 103.575 251.968C99.202 243.815 95.2854 234.961 93.3353 225.889C98.925 225.856 104.509 225.981 110.099 225.764C120.056 225.737 130.013 225.758 139.97 225.753C139.927 216.383 140.1 207.007 139.834 197.642C139.807 183.795 139.937 169.955 139.693 156.108C160.449 143.5 181.297 131.039 202.075 118.475C223.581 131.235 245.054 144.049 266.543 156.83C266.598 168.624 266.413 180.422 266.684 192.21C266.733 204.883 266.543 217.567 266.82 230.235C266.81 239.377 266.815 248.519 266.82 257.661C269.672 257.672 272.519 257.656 275.37 257.683C286.713 243.386 293.666 225.585 295.23 207.414C296.512 193.242 294.513 178.765 289.499 165.451C283.519 149.601 273.273 135.412 260.09 124.77C246.575 113.765 230.023 106.567 212.744 104.275C196.361 102.021 179.423 104.183 164.105 110.413C147.015 117.334 132.088 129.317 121.544 144.435C112.445 157.395 106.693 172.66 104.933 188.396C104.21 194.79 104.227 201.276 104.716 207.691C99.919 207.691 95.117 207.702 90.3205 207.686C90.239 205.839 90.1086 204.003 90 202.161V195.724C90.6573 176.772 96.0676 158.113 105.998 141.936C116.585 124.548 132.11 110.115 150.296 100.945C176.267 87.6039 207.529 85.4419 235.151 94.8449Z" fill="white" style="fill:white;fill-opacity:1;"/>
<path d="M178.413 177.679C185.154 177.673 191.895 177.679 198.636 177.679C198.647 184.377 198.642 191.075 198.636 197.778C191.895 197.778 185.154 197.783 178.413 197.773C178.402 191.075 178.402 184.377 178.413 177.679Z" fill="white" style="fill:white;fill-opacity:1;"/>
<path d="M201.553 177.739C208.219 177.581 214.916 177.728 221.587 177.679C221.598 184.377 221.598 191.075 221.587 197.772C214.89 197.783 208.192 197.783 201.494 197.772C201.543 191.102 201.396 184.404 201.553 177.739Z" fill="white" style="fill:white;fill-opacity:1;"/>
<path d="M198.636 200.081C198.647 206.784 198.647 213.487 198.636 220.19C191.89 220.18 185.149 220.201 178.407 220.174C178.407 213.482 178.407 206.79 178.407 200.097C185.149 200.07 191.89 200.092 198.636 200.081Z" fill="white" style="fill:white;fill-opacity:1;"/>
<path d="M201.494 200.092C208.192 200.081 214.889 200.081 221.593 200.092C221.593 206.79 221.593 213.482 221.593 220.18C214.889 220.191 208.192 220.191 201.494 220.18C201.494 213.482 201.494 206.79 201.494 200.092Z" fill="white" style="fill:white;fill-opacity:1;"/>
</g>
</g>
<defs>
<clipPath id="clip0_4654_1751">
<rect width="400" height="400" fill="white" style="fill:white;fill-opacity:1;"/>
</clipPath>
<clipPath id="clip1_4654_1751">
<rect width="220" height="220" fill="white" style="fill:white;fill-opacity:1;" transform="translate(90 89)"/>
</clipPath>
</defs>
</svg>
